G75*
G70*
%OFA0B0*%
%FSLAX24Y24*%
%IPPOS*%
%LPD*%
%AMOC8*
5,1,8,0,0,1.08239X$1,22.5*
%
%ADD10C,0.0740*%
%ADD11C,0.0600*%
%ADD12OC8,0.0480*%
%ADD13C,0.0475*%
%ADD14C,0.1299*%
%ADD15C,0.0660*%
%ADD16C,0.1770*%
%ADD17C,0.0500*%
%ADD18C,0.0300*%
D10*
X017905Y015405D03*
X018905Y015405D03*
X019905Y015405D03*
X020905Y015405D03*
X021905Y015405D03*
X022905Y015405D03*
X024905Y015405D03*
X025905Y015405D03*
X026905Y015405D03*
X027905Y015405D03*
X028905Y015405D03*
X029905Y015405D03*
X029405Y018905D03*
X029405Y020905D03*
X025405Y020905D03*
X025405Y018905D03*
X020905Y018905D03*
X020905Y020905D03*
X016905Y020905D03*
X016905Y018905D03*
X015405Y024905D03*
X015405Y028905D03*
X013405Y032905D03*
X014405Y034405D03*
X015405Y034405D03*
X016405Y034405D03*
X017405Y034405D03*
X018405Y034405D03*
X019405Y034405D03*
X020405Y034405D03*
X021405Y034405D03*
X022905Y034405D03*
X023905Y034405D03*
X024905Y034405D03*
X025905Y034405D03*
X026905Y034405D03*
X027905Y034405D03*
X028905Y034405D03*
X029905Y034405D03*
X031905Y028905D03*
X031905Y024905D03*
X033405Y020905D03*
X033405Y018905D03*
X037405Y018905D03*
X037405Y020905D03*
X040905Y020905D03*
X040905Y018905D03*
X044905Y018905D03*
X044905Y020905D03*
X039405Y024905D03*
X039405Y028905D03*
X023905Y028905D03*
X023905Y024905D03*
X009405Y032905D03*
D11*
X017905Y028705D02*
X017905Y028105D01*
X018905Y028105D02*
X018905Y028705D01*
X019905Y028705D02*
X019905Y028105D01*
X019905Y025205D02*
X019905Y024605D01*
X018905Y024605D02*
X018905Y025205D01*
X017905Y025205D02*
X017905Y024605D01*
X026405Y024605D02*
X026405Y025205D01*
X027405Y025205D02*
X027405Y024605D01*
X028405Y024605D02*
X028405Y025205D01*
X028405Y028105D02*
X028405Y028705D01*
X027405Y028705D02*
X027405Y028105D01*
X026405Y028105D02*
X026405Y028705D01*
X034405Y028705D02*
X034405Y028105D01*
X035405Y028105D02*
X035405Y028705D01*
X036405Y028705D02*
X036405Y028105D01*
X036405Y025205D02*
X036405Y024605D01*
X035405Y024605D02*
X035405Y025205D01*
X034405Y025205D02*
X034405Y024605D01*
X041905Y024605D02*
X041905Y025205D01*
X042905Y025205D02*
X042905Y024605D01*
X043905Y024605D02*
X043905Y025205D01*
X043905Y028105D02*
X043905Y028705D01*
X042905Y028705D02*
X042905Y028105D01*
X041905Y028105D02*
X041905Y028705D01*
D12*
X044405Y023155D03*
X043905Y022405D03*
X044905Y022405D03*
X037405Y022405D03*
X036905Y023155D03*
X036405Y022405D03*
X029405Y022405D03*
X028905Y023155D03*
X028405Y022405D03*
X021405Y022405D03*
X020905Y023155D03*
X020405Y022405D03*
D13*
X013642Y018405D02*
X013168Y018405D01*
X013168Y017405D02*
X013642Y017405D01*
X012905Y013642D02*
X012905Y013168D01*
X011905Y013168D02*
X011905Y013642D01*
X022905Y013642D02*
X022905Y013168D01*
X023905Y013168D02*
X023905Y013642D01*
X033905Y013642D02*
X033905Y013168D01*
X034905Y013168D02*
X034905Y013642D01*
X044905Y013642D02*
X044905Y013168D01*
X045905Y013168D02*
X045905Y013642D01*
X044905Y036168D02*
X044905Y036642D01*
X043905Y036642D02*
X043905Y036168D01*
X033905Y036168D02*
X033905Y036642D01*
X032905Y036642D02*
X032905Y036168D01*
X022905Y036168D02*
X022905Y036642D01*
X021905Y036642D02*
X021905Y036168D01*
X011905Y036168D02*
X011905Y036642D01*
X010905Y036642D02*
X010905Y036168D01*
D14*
X009905Y011405D03*
X013905Y011405D03*
X011405Y016405D03*
X011405Y020405D03*
X020905Y011405D03*
X024905Y011405D03*
X031905Y011405D03*
X035905Y011405D03*
X042905Y011405D03*
X046905Y011405D03*
X046905Y038405D03*
X042905Y038405D03*
X035905Y038405D03*
X031905Y038405D03*
X024905Y038405D03*
X020905Y038405D03*
X013905Y038405D03*
X009905Y038405D03*
D15*
X015905Y030905D03*
X019905Y030905D03*
X024405Y030905D03*
X028405Y030905D03*
X032405Y030905D03*
X036405Y030905D03*
X039905Y030905D03*
X043905Y030905D03*
D16*
X013799Y029905D03*
X012618Y028055D03*
X011436Y029905D03*
D17*
X011655Y029905D01*
X012405Y029155D01*
X012405Y028155D01*
X012618Y028055D01*
X012655Y027905D01*
X012655Y019905D01*
X012405Y019655D01*
X012405Y017405D01*
X013405Y017405D01*
X014405Y020155D02*
X016655Y017905D01*
X020905Y017905D01*
X020905Y018905D01*
X021155Y019905D02*
X017905Y019905D01*
X017905Y024905D01*
X018905Y024905D02*
X018905Y025905D01*
X016905Y027905D01*
X016905Y029905D01*
X015905Y030905D01*
X014405Y029405D02*
X014405Y028655D01*
X015405Y027655D01*
X015405Y024905D01*
X016155Y025405D02*
X016905Y024655D01*
X016905Y024405D01*
X016155Y025405D02*
X016155Y028155D01*
X015405Y028905D01*
X014405Y029405D02*
X013905Y029905D01*
X013799Y029905D01*
X013155Y031905D02*
X017905Y031905D01*
X017905Y028405D01*
X019905Y030905D02*
X019905Y032905D01*
X013405Y032905D01*
X013155Y031905D02*
X012405Y032655D01*
X012405Y035905D01*
X011905Y036405D01*
X010905Y036405D02*
X009405Y034905D01*
X009405Y032905D01*
X011405Y030905D01*
X011405Y029905D01*
X011436Y029905D01*
X014405Y027405D02*
X014405Y020155D01*
X016905Y019905D02*
X016905Y018905D01*
X016905Y019905D02*
X016905Y020905D01*
X016905Y019905D02*
X017905Y019905D01*
X021155Y019905D02*
X021905Y020655D01*
X021905Y021905D01*
X021405Y022405D01*
X020905Y023155D02*
X019905Y024155D01*
X019905Y024905D01*
X023905Y028905D02*
X026655Y026155D01*
X028405Y026155D01*
X028405Y024905D01*
X028405Y023655D01*
X028905Y023155D01*
X028405Y022405D02*
X028655Y022155D01*
X028655Y021655D01*
X029405Y020905D01*
X030405Y019905D02*
X029405Y018905D01*
X030405Y019905D02*
X030405Y026905D01*
X028405Y026905D01*
X027405Y027905D01*
X027405Y028405D01*
X026405Y028405D02*
X025405Y029405D01*
X025405Y033655D01*
X024905Y034155D01*
X024905Y034405D01*
X023905Y034405D02*
X023905Y034655D01*
X024655Y035405D01*
X034405Y035405D01*
X034405Y035905D01*
X033905Y036405D01*
X034405Y035405D02*
X034405Y028405D01*
X035405Y028405D02*
X035405Y027405D01*
X038405Y024405D01*
X038405Y018655D01*
X037405Y020905D02*
X036655Y021655D01*
X036655Y022155D01*
X036405Y022405D01*
X036905Y023155D02*
X036405Y023655D01*
X036405Y024905D01*
X035405Y024905D02*
X035405Y025405D01*
X033405Y027405D01*
X033405Y029905D01*
X032405Y030905D01*
X031905Y028905D02*
X032655Y028155D01*
X032655Y026405D01*
X031155Y026155D02*
X031155Y028405D01*
X029405Y030155D01*
X029405Y032655D01*
X027905Y034155D01*
X027905Y034405D01*
X024405Y030905D02*
X022905Y029405D01*
X022905Y019905D01*
X025280Y017530D01*
X023905Y016155D01*
X023905Y015155D01*
X023155Y014405D01*
X023155Y013655D01*
X022905Y013405D01*
X025280Y017530D02*
X027405Y019655D01*
X027405Y024905D01*
X026405Y024905D02*
X026405Y021905D01*
X025405Y020905D01*
X025405Y018905D01*
X033405Y020905D02*
X033405Y023905D01*
X034405Y024905D01*
X035405Y024905D02*
X035405Y019655D01*
X034155Y018405D01*
X034155Y013655D01*
X033905Y013405D01*
X040905Y020905D02*
X040905Y023905D01*
X041905Y024905D01*
X042905Y024905D02*
X042905Y025405D01*
X040905Y027405D01*
X040905Y029905D01*
X039905Y030905D01*
X041905Y030155D02*
X041905Y028405D01*
X042905Y028405D02*
X042905Y027405D01*
X045655Y024655D01*
X045655Y021405D01*
X044905Y020905D02*
X044155Y021655D01*
X044155Y022155D01*
X043905Y022405D01*
X044405Y023155D02*
X043905Y023655D01*
X043905Y024905D01*
X042905Y024905D02*
X042905Y015405D01*
X044905Y013405D01*
X045905Y013405D02*
X046405Y013905D01*
X046405Y028405D01*
X043905Y030905D01*
X041905Y030155D02*
X044655Y032905D01*
X044655Y036155D01*
X044905Y036405D01*
X043905Y036405D02*
X036405Y028905D01*
X036405Y028405D01*
D18*
X032655Y026405D03*
X031155Y026155D03*
X038405Y018655D03*
X045655Y021405D03*
X017905Y031905D03*
X014405Y027405D03*
X016905Y024405D03*
M02*
