%
M48
M72
T01C0.0140
T02C0.0315
T03C0.0320
T04C0.0354
T05C0.0400
T06C0.0440
T07C0.0866
T08C0.1180
T09C0.1260
T10C0.1300
%
T01
X16905Y24405
X14405Y27405
X17905Y31905
X31155Y26155
X32655Y26405
X38405Y18655
X45655Y21405
T02
X45905Y13405
X44905Y13405
X34905Y13405
X33905Y13405
X23905Y13405
X22905Y13405
X13405Y17405
X13405Y18405
X12905Y13405
X11905Y13405
X11905Y36405
X10905Y36405
X21905Y36405
X22905Y36405
X32905Y36405
X33905Y36405
X43905Y36405
X44905Y36405
T03
X44405Y23155
X43905Y22405
X44905Y22405
X37405Y22405
X36905Y23155
X36405Y22405
X29405Y22405
X28905Y23155
X28405Y22405
X21405Y22405
X20905Y23155
X20405Y22405
T04
X20905Y20905
X20905Y18905
X16905Y18905
X16905Y20905
X15405Y24905
X15405Y28905
X13405Y32905
X9405Y32905
X23905Y28905
X23905Y24905
X25405Y20905
X25405Y18905
X29405Y18905
X29405Y20905
X33405Y20905
X33405Y18905
X37405Y18905
X37405Y20905
X40905Y20905
X40905Y18905
X44905Y18905
X44905Y20905
X39405Y24905
X39405Y28905
X31905Y28905
X31905Y24905
T05
X34405Y24905
X35405Y24905
X36405Y24905
X36405Y28405
X35405Y28405
X34405Y28405
X28405Y28405
X27405Y28405
X26405Y28405
X26405Y24905
X27405Y24905
X28405Y24905
X19905Y24905
X18905Y24905
X17905Y24905
X17905Y28405
X18905Y28405
X19905Y28405
X19405Y34405
X20405Y34405
X21405Y34405
X22905Y34405
X23905Y34405
X24905Y34405
X25905Y34405
X26905Y34405
X27905Y34405
X28905Y34405
X29905Y34405
X18405Y34405
X17405Y34405
X16405Y34405
X15405Y34405
X14405Y34405
X17905Y15405
X18905Y15405
X19905Y15405
X20905Y15405
X21905Y15405
X22905Y15405
X24905Y15405
X25905Y15405
X26905Y15405
X27905Y15405
X28905Y15405
X29905Y15405
X41905Y24905
X42905Y24905
X43905Y24905
X43905Y28405
X42905Y28405
X41905Y28405
T06
X39905Y30905
X36405Y30905
X32405Y30905
X28405Y30905
X24405Y30905
X19905Y30905
X15905Y30905
X43905Y30905
T07
X9905Y11405
X13905Y11405
X11405Y16405
X11405Y20405
X20905Y11405
X24905Y11405
X31905Y11405
X35905Y11405
X42905Y11405
X46905Y11405
X46905Y38405
X42905Y38405
X35905Y38405
X31905Y38405
X24905Y38405
X20905Y38405
X13905Y38405
X9905Y38405
T08
X11436Y29905
X12618Y28055
X13799Y29905
T09
X17405Y37405
X39405Y37405
X39405Y12405
X17405Y12405
T10
X30905Y17405
X10905Y34405
M30
