G75*
G70*
%OFA0B0*%
%FSLAX24Y24*%
%IPPOS*%
%LPD*%
%AMOC8*
5,1,8,0,0,1.08239X$1,22.5*
%
%ADD10C,0.1320*%
%ADD11C,0.0800*%
%ADD12C,0.0660*%
%ADD13OC8,0.0540*%
%ADD14C,0.0535*%
%ADD15C,0.1359*%
%ADD16C,0.0720*%
%ADD17C,0.1360*%
%ADD18C,0.1830*%
%ADD19C,0.0360*%
D10*
X017405Y012405D03*
X039405Y012405D03*
X039405Y037405D03*
X017405Y037405D03*
D11*
X017405Y034405D03*
X016405Y034405D03*
X015405Y034405D03*
X014405Y034405D03*
X013405Y032905D03*
X009405Y032905D03*
X015405Y028905D03*
X015405Y024905D03*
X016905Y020905D03*
X016905Y018905D03*
X017905Y015405D03*
X018905Y015405D03*
X019905Y015405D03*
X020905Y015405D03*
X021905Y015405D03*
X022905Y015405D03*
X024905Y015405D03*
X025905Y015405D03*
X026905Y015405D03*
X027905Y015405D03*
X028905Y015405D03*
X029905Y015405D03*
X029405Y018905D03*
X029405Y020905D03*
X025405Y020905D03*
X025405Y018905D03*
X020905Y018905D03*
X020905Y020905D03*
X023905Y024905D03*
X023905Y028905D03*
X023905Y034405D03*
X022905Y034405D03*
X021405Y034405D03*
X020405Y034405D03*
X019405Y034405D03*
X018405Y034405D03*
X024905Y034405D03*
X025905Y034405D03*
X026905Y034405D03*
X027905Y034405D03*
X028905Y034405D03*
X029905Y034405D03*
X031905Y028905D03*
X031905Y024905D03*
X033405Y020905D03*
X033405Y018905D03*
X037405Y018905D03*
X037405Y020905D03*
X040905Y020905D03*
X040905Y018905D03*
X044905Y018905D03*
X044905Y020905D03*
X039405Y024905D03*
X039405Y028905D03*
D12*
X041905Y028705D02*
X041905Y028105D01*
X042905Y028105D02*
X042905Y028705D01*
X043905Y028705D02*
X043905Y028105D01*
X043905Y025205D02*
X043905Y024605D01*
X042905Y024605D02*
X042905Y025205D01*
X041905Y025205D02*
X041905Y024605D01*
X036405Y024605D02*
X036405Y025205D01*
X035405Y025205D02*
X035405Y024605D01*
X034405Y024605D02*
X034405Y025205D01*
X034405Y028105D02*
X034405Y028705D01*
X035405Y028705D02*
X035405Y028105D01*
X036405Y028105D02*
X036405Y028705D01*
X028405Y028705D02*
X028405Y028105D01*
X027405Y028105D02*
X027405Y028705D01*
X026405Y028705D02*
X026405Y028105D01*
X026405Y025205D02*
X026405Y024605D01*
X027405Y024605D02*
X027405Y025205D01*
X028405Y025205D02*
X028405Y024605D01*
X019905Y024605D02*
X019905Y025205D01*
X018905Y025205D02*
X018905Y024605D01*
X017905Y024605D02*
X017905Y025205D01*
X017905Y028105D02*
X017905Y028705D01*
X018905Y028705D02*
X018905Y028105D01*
X019905Y028105D02*
X019905Y028705D01*
D13*
X020905Y023155D03*
X020405Y022405D03*
X021405Y022405D03*
X028405Y022405D03*
X028905Y023155D03*
X029405Y022405D03*
X036405Y022405D03*
X036905Y023155D03*
X037405Y022405D03*
X043905Y022405D03*
X044405Y023155D03*
X044905Y022405D03*
D14*
X044905Y013642D02*
X044905Y013168D01*
X045905Y013168D02*
X045905Y013642D01*
X034905Y013642D02*
X034905Y013168D01*
X033905Y013168D02*
X033905Y013642D01*
X023905Y013642D02*
X023905Y013168D01*
X022905Y013168D02*
X022905Y013642D01*
X013642Y017405D02*
X013168Y017405D01*
X013168Y018405D02*
X013642Y018405D01*
X012905Y013642D02*
X012905Y013168D01*
X011905Y013168D02*
X011905Y013642D01*
X011905Y036168D02*
X011905Y036642D01*
X010905Y036642D02*
X010905Y036168D01*
X021905Y036168D02*
X021905Y036642D01*
X022905Y036642D02*
X022905Y036168D01*
X032905Y036168D02*
X032905Y036642D01*
X033905Y036642D02*
X033905Y036168D01*
X043905Y036168D02*
X043905Y036642D01*
X044905Y036642D02*
X044905Y036168D01*
D15*
X009905Y011405D03*
X013905Y011405D03*
X011405Y016405D03*
X011405Y020405D03*
X020905Y011405D03*
X024905Y011405D03*
X031905Y011405D03*
X035905Y011405D03*
X042905Y011405D03*
X046905Y011405D03*
X046905Y038405D03*
X042905Y038405D03*
X035905Y038405D03*
X031905Y038405D03*
X024905Y038405D03*
X020905Y038405D03*
X013905Y038405D03*
X009905Y038405D03*
D16*
X015905Y030905D03*
X019905Y030905D03*
X024405Y030905D03*
X028405Y030905D03*
X032405Y030905D03*
X036405Y030905D03*
X039905Y030905D03*
X043905Y030905D03*
D17*
X030905Y017405D03*
X010905Y034405D03*
D18*
X011436Y029905D03*
X012618Y028055D03*
X013799Y029905D03*
D19*
X014405Y027405D03*
X016905Y024405D03*
X017905Y031905D03*
X031155Y026155D03*
X032655Y026405D03*
X038405Y018655D03*
X045655Y021405D03*
M02*
